<mxfile host="app.diagrams.net" modified="2023-09-14T17:12:13.687Z" agent="Mozilla/5.0 (Windows NT 10.0; Win64; x64) AppleWebKit/537.36 (KHTML, like Gecko) Chrome/116.0.0.0 Safari/537.36" version="21.7.4" etag="K_eCy9zXHFApWIFaSCcc" type="github">
  <diagram name="หน้า-1" id="z7RUBufAAtI_HzpoIfAT">
    <mxGraphModel>
      <root>
        <mxCell id="0" />
        <mxCell id="1" parent="0" />
      </root>
    </mxGraphModel>
  </diagram>
</mxfile>
